<svg width="220" height="40" viewBox="0 0 220 40" fill="none" xmlns="http://www.w3.org/2000/svg">
<path d="M21.1064 20.7467C21.0864 20.7467 21.0731 20.7467 21.0531 20.7467C21.0197 20.74 20.9731 20.74 20.9331 20.7467C18.9997 20.6867 17.5397 19.1667 17.5397 17.2933C17.5397 15.3867 19.0931 13.8333 20.9997 13.8333C22.9064 13.8333 24.4597 15.3867 24.4597 17.2933C24.4531 19.1667 22.9864 20.6867 21.1264 20.7467C21.1197 20.7467 21.1131 20.7467 21.1064 20.7467ZM20.9997 14.8333C19.6464 14.8333 18.5397 15.94 18.5397 17.2933C18.5397 18.6267 19.5797 19.7 20.9064 19.7467C20.9464 19.74 21.0331 19.74 21.1197 19.7467C22.4264 19.6867 23.4531 18.6133 23.4597 17.2933C23.4597 15.94 22.3531 14.8333 20.9997 14.8333Z" fill="#787486"/>
<path d="M26.0264 20.8333C26.0064 20.8333 25.9864 20.8333 25.9664 20.8267C25.6931 20.8533 25.4131 20.66 25.3864 20.3867C25.3597 20.1133 25.5264 19.8667 25.7997 19.8333C25.8797 19.8267 25.9664 19.8267 26.0397 19.8267C27.0131 19.7733 27.7731 18.9733 27.7731 17.9933C27.7731 16.98 26.9531 16.16 25.9397 16.16C25.6664 16.1667 25.4397 15.94 25.4397 15.6667C25.4397 15.3933 25.6664 15.1667 25.9397 15.1667C27.4997 15.1667 28.7731 16.44 28.7731 18C28.7731 19.5333 27.5731 20.7733 26.0464 20.8333C26.0397 20.8333 26.0331 20.8333 26.0264 20.8333Z" fill="#787486"/>
<path d="M21.1131 28.0333C19.8064 28.0333 18.4931 27.7 17.4997 27.0333C16.5731 26.42 16.0664 25.58 16.0664 24.6667C16.0664 23.7533 16.5731 22.9067 17.4997 22.2867C19.4997 20.96 22.7397 20.96 24.7264 22.2867C25.6464 22.9 26.1597 23.74 26.1597 24.6533C26.1597 25.5667 25.6531 26.4133 24.7264 27.0333C23.7264 27.7 22.4197 28.0333 21.1131 28.0333ZM18.0531 23.1267C17.4131 23.5533 17.0664 24.1 17.0664 24.6733C17.0664 25.24 17.4197 25.7867 18.0531 26.2067C19.7131 27.32 22.5131 27.32 24.1731 26.2067C24.8131 25.78 25.1597 25.2333 25.1597 24.66C25.1597 24.0933 24.8064 23.5467 24.1731 23.1267C22.5131 22.02 19.7131 22.02 18.0531 23.1267Z" fill="#787486"/>
<path d="M27.2264 26.8333C26.9931 26.8333 26.7864 26.6733 26.7397 26.4333C26.6864 26.16 26.8597 25.9 27.1264 25.84C27.5464 25.7533 27.9331 25.5867 28.2331 25.3533C28.6131 25.0667 28.8197 24.7067 28.8197 24.3267C28.8197 23.9467 28.6131 23.5867 28.2397 23.3067C27.9464 23.08 27.5797 22.92 27.1464 22.82C26.8797 22.76 26.7064 22.4933 26.7664 22.22C26.8264 21.9533 27.0931 21.78 27.3664 21.84C27.9397 21.9667 28.4397 22.1933 28.8464 22.5067C29.4664 22.9733 29.8197 23.6333 29.8197 24.3267C29.8197 25.02 29.4597 25.68 28.8397 26.1533C28.4264 26.4733 27.9064 26.7067 27.3331 26.82C27.2931 26.8333 27.2597 26.8333 27.2264 26.8333Z" fill="#787486"/>
<rect x="0.5" y="0.5" width="96" height="39" rx="5.5" stroke="#787486"/>
<path d="M44.625 17.4205C44.5644 16.8826 44.3144 16.4659 43.875 16.1705C43.4356 15.8712 42.8826 15.7216 42.2159 15.7216C41.7386 15.7216 41.3258 15.7973 40.9773 15.9489C40.6288 16.0966 40.358 16.3011 40.1648 16.5625C39.9754 16.8201 39.8807 17.1136 39.8807 17.4432C39.8807 17.7197 39.9451 17.9583 40.0739 18.1591C40.2064 18.3598 40.3788 18.5284 40.5909 18.6648C40.8068 18.7973 41.0379 18.9091 41.2841 19C41.5303 19.0871 41.767 19.1591 41.9943 19.2159L43.1307 19.5114C43.5019 19.6023 43.8826 19.7254 44.2727 19.8807C44.6629 20.036 45.0246 20.2405 45.358 20.4943C45.6913 20.7481 45.9602 21.0625 46.1648 21.4375C46.3731 21.8125 46.4773 22.2614 46.4773 22.7841C46.4773 23.4432 46.3068 24.0284 45.9659 24.5398C45.6288 25.0511 45.1383 25.4545 44.4943 25.75C43.8542 26.0455 43.0795 26.1932 42.1705 26.1932C41.2992 26.1932 40.5455 26.0549 39.9091 25.7784C39.2727 25.5019 38.7746 25.1098 38.4148 24.6023C38.0549 24.0909 37.8561 23.4848 37.8182 22.7841H39.5795C39.6136 23.2045 39.75 23.5549 39.9886 23.8352C40.2311 24.1117 40.5398 24.3182 40.9148 24.4545C41.2936 24.5871 41.7083 24.6534 42.1591 24.6534C42.6553 24.6534 43.0966 24.5758 43.483 24.4205C43.8731 24.2614 44.1799 24.0417 44.4034 23.7614C44.6269 23.4773 44.7386 23.1458 44.7386 22.767C44.7386 22.4223 44.6402 22.1402 44.4432 21.9205C44.25 21.7008 43.9867 21.5189 43.6534 21.375C43.3239 21.2311 42.9508 21.1042 42.5341 20.9943L41.1591 20.6193C40.2273 20.3655 39.4886 19.9924 38.9432 19.5C38.4015 19.0076 38.1307 18.3561 38.1307 17.5455C38.1307 16.875 38.3125 16.2898 38.6761 15.7898C39.0398 15.2898 39.5322 14.9015 40.1534 14.625C40.7746 14.3447 41.4754 14.2045 42.2557 14.2045C43.0436 14.2045 43.7386 14.3428 44.3409 14.6193C44.947 14.8958 45.4242 15.2765 45.7727 15.7614C46.1212 16.2424 46.303 16.7955 46.3182 17.4205H44.625ZM50.1378 20.8182V26H48.4389V14.3636H50.1151V18.6932H50.223C50.4276 18.2235 50.7401 17.8504 51.1605 17.5739C51.581 17.2973 52.1302 17.1591 52.8082 17.1591C53.4067 17.1591 53.9295 17.2822 54.3764 17.5284C54.8272 17.7746 55.1757 18.142 55.4219 18.6307C55.6719 19.1155 55.7969 19.7216 55.7969 20.4489V26H54.098V20.6534C54.098 20.0133 53.9332 19.517 53.6037 19.1648C53.2741 18.8087 52.8158 18.6307 52.2287 18.6307C51.8272 18.6307 51.4673 18.7159 51.1491 18.8864C50.8348 19.0568 50.5866 19.3068 50.4048 19.6364C50.2268 19.9621 50.1378 20.3561 50.1378 20.8182ZM60.6037 26.1932C60.0507 26.1932 59.5507 26.0909 59.1037 25.8864C58.6567 25.678 58.3026 25.3769 58.0412 24.983C57.7836 24.589 57.6548 24.1061 57.6548 23.5341C57.6548 23.0417 57.7495 22.6364 57.9389 22.3182C58.1283 22 58.384 21.7481 58.706 21.5625C59.0279 21.3769 59.3878 21.2367 59.7855 21.142C60.1832 21.0473 60.5885 20.9754 61.0014 20.9261C61.5241 20.8655 61.9484 20.8163 62.2741 20.7784C62.5999 20.7367 62.8366 20.6705 62.9844 20.5795C63.1321 20.4886 63.206 20.3409 63.206 20.1364V20.0966C63.206 19.6004 63.0658 19.2159 62.7855 18.9432C62.509 18.6705 62.0961 18.5341 61.5469 18.5341C60.9749 18.5341 60.5241 18.661 60.1946 18.9148C59.8688 19.1648 59.6435 19.4432 59.5185 19.75L57.9219 19.3864C58.1113 18.8561 58.3878 18.428 58.7514 18.1023C59.1188 17.7727 59.5412 17.5341 60.0185 17.3864C60.4957 17.2348 60.9976 17.1591 61.5241 17.1591C61.8726 17.1591 62.242 17.2008 62.6321 17.2841C63.026 17.3636 63.3935 17.5114 63.7344 17.7273C64.0791 17.9432 64.3613 18.2519 64.581 18.6534C64.8007 19.0511 64.9105 19.5682 64.9105 20.2045V26H63.2514V24.8068H63.1832C63.0734 25.0265 62.9086 25.2424 62.6889 25.4545C62.4692 25.6667 62.187 25.8428 61.8423 25.983C61.4976 26.1231 61.0848 26.1932 60.6037 26.1932ZM60.973 24.8295C61.4427 24.8295 61.8442 24.7367 62.1776 24.5511C62.5147 24.3655 62.7704 24.1231 62.9446 23.8239C63.1226 23.5208 63.2116 23.197 63.2116 22.8523V21.7273C63.151 21.7879 63.0336 21.8447 62.8594 21.8977C62.6889 21.947 62.4938 21.9905 62.2741 22.0284C62.0545 22.0625 61.8404 22.0947 61.6321 22.125C61.4238 22.1515 61.2495 22.1742 61.1094 22.1932C60.7798 22.2348 60.4787 22.3049 60.206 22.4034C59.937 22.5019 59.7211 22.6439 59.5582 22.8295C59.3991 23.0114 59.3196 23.2538 59.3196 23.5568C59.3196 23.9773 59.4749 24.2955 59.7855 24.5114C60.0961 24.7235 60.492 24.8295 60.973 24.8295ZM67.1733 26V17.2727H68.8153V18.6591H68.9062C69.0653 18.1894 69.3456 17.8201 69.7472 17.5511C70.1525 17.2784 70.6108 17.142 71.1222 17.142C71.2282 17.142 71.3532 17.1458 71.4972 17.1534C71.6449 17.161 71.7604 17.1705 71.8438 17.1818V18.8068C71.7756 18.7879 71.6544 18.767 71.4801 18.7443C71.3059 18.7178 71.1316 18.7045 70.9574 18.7045C70.5559 18.7045 70.1979 18.7898 69.8835 18.9602C69.5729 19.1269 69.3267 19.3598 69.1449 19.6591C68.9631 19.9545 68.8722 20.2917 68.8722 20.6705V26H67.1733ZM76.7628 26.1761C75.9029 26.1761 75.1624 25.9924 74.5412 25.625C73.9238 25.2538 73.4465 24.733 73.1094 24.0625C72.776 23.3883 72.6094 22.5985 72.6094 21.6932C72.6094 20.7992 72.776 20.0114 73.1094 19.3295C73.4465 18.6477 73.9162 18.1155 74.5185 17.733C75.1245 17.3504 75.8329 17.1591 76.6435 17.1591C77.1359 17.1591 77.6132 17.2405 78.0753 17.4034C78.5374 17.5663 78.9522 17.822 79.3196 18.1705C79.687 18.5189 79.9768 18.9716 80.1889 19.5284C80.401 20.0814 80.5071 20.7538 80.5071 21.5455V22.1477H73.5696V20.875H78.8423C78.8423 20.428 78.7514 20.0322 78.5696 19.6875C78.3878 19.339 78.1321 19.0644 77.8026 18.8636C77.4768 18.6629 77.0942 18.5625 76.6548 18.5625C76.1776 18.5625 75.7609 18.6799 75.4048 18.9148C75.0526 19.1458 74.7798 19.4489 74.5866 19.8239C74.3973 20.1951 74.3026 20.5985 74.3026 21.0341V22.0284C74.3026 22.6117 74.4048 23.108 74.6094 23.517C74.8177 23.9261 75.1075 24.2386 75.4787 24.4545C75.8499 24.6667 76.2836 24.7727 76.7798 24.7727C77.1018 24.7727 77.3954 24.7273 77.6605 24.6364C77.9257 24.5417 78.1548 24.4015 78.348 24.2159C78.5412 24.0303 78.6889 23.8011 78.7912 23.5284L80.3991 23.8182C80.2704 24.2917 80.0393 24.7064 79.706 25.0625C79.3764 25.4148 78.9616 25.6894 78.4616 25.8864C77.9654 26.0795 77.3991 26.1761 76.7628 26.1761Z" fill="#787486"/>
<rect x="137" width="40" height="40" rx="6" fill="#5030E5"/>
<path d="M162.925 21.125L151.075 21.125C149.95 21.125 149.5 21.6 149.5 22.8L149.5 25.825C149.5 27.025 149.95 27.5 151.075 27.5L162.925 27.5C164.05 27.5 164.5 27.025 164.5 25.825L164.5 22.8C164.5 21.6 164.05 21.125 162.925 21.125Z" fill="white"/>
<path d="M162.925 12.5L151.075 12.5C149.95 12.5 149.5 12.975 149.5 14.175L149.5 17.2C149.5 18.3917 149.95 18.875 151.075 18.875L162.925 18.875C164.05 18.875 164.5 18.4 164.5 17.2L164.5 14.175C164.5 12.975 164.05 12.5 162.925 12.5Z" fill="white"/>
<path d="M214.195 17.9999C215.576 17.9999 216.695 16.8807 216.695 15.4999C216.695 14.1192 215.576 12.9999 214.195 12.9999C212.814 12.9999 211.695 14.1192 211.695 15.4999C211.695 16.8807 212.814 17.9999 214.195 17.9999Z" stroke="#787486" stroke-width="1.5" stroke-miterlimit="10" stroke-linecap="round" stroke-linejoin="round"/>
<path d="M204.5 17.9999C205.881 17.9999 207 16.8807 207 15.4999C207 14.1192 205.881 12.9999 204.5 12.9999C203.119 12.9999 202 14.1192 202 15.4999C202 16.8807 203.119 17.9999 204.5 17.9999Z" stroke="#787486" stroke-width="1.5" stroke-miterlimit="10" stroke-linecap="round" stroke-linejoin="round"/>
<path d="M214.195 27.9999C215.576 27.9999 216.695 26.8807 216.695 25.4999C216.695 24.1192 215.576 22.9999 214.195 22.9999C212.814 22.9999 211.695 24.1192 211.695 25.4999C211.695 26.8807 212.814 27.9999 214.195 27.9999Z" stroke="#787486" stroke-width="1.5" stroke-miterlimit="10" stroke-linecap="round" stroke-linejoin="round"/>
<path d="M204.5 27.9999C205.881 27.9999 207 26.8807 207 25.4999C207 24.1192 205.881 22.9999 204.5 22.9999C203.119 22.9999 202 24.1192 202 25.4999C202 26.8807 203.119 27.9999 204.5 27.9999Z" stroke="#787486" stroke-width="1.5" stroke-miterlimit="10" stroke-linecap="round" stroke-linejoin="round"/>
<path d="M117 5.5V33.5" stroke="#787486"/>
</svg>
